<svg width="80" height="80" viewBox="0 0 80 80" fill="none" xmlns="http://www.w3.org/2000/svg">
<rect x="0.5" y="0.5" width="79" height="79" rx="39.5" stroke="white"/>
<path d="M30.95 50V44.75L36.2 41.9C39 40.38 40.9 39.2 41.9 38.36C42.9 37.52 43.4 36.75 43.4 36.05C43.4 35.49 43.15 35.03 42.65 34.67C42.15 34.29 41.4 34.1 40.4 34.1C39.4 34.1 38.38 34.23 37.34 34.49C36.3 34.73 35.39 35.03 34.61 35.39C33.85 35.73 33.16 36.08 32.54 36.44C31.92 36.78 31.45 37.08 31.13 37.34L30.65 37.7V31.25C30.75 31.17 30.89 31.07 31.07 30.95C31.25 30.81 31.67 30.58 32.33 30.26C32.99 29.94 33.69 29.66 34.43 29.42C35.19 29.16 36.19 28.93 37.43 28.73C38.67 28.51 39.96 28.4 41.3 28.4C44.58 28.4 47.05 29.02 48.71 30.26C50.37 31.5 51.2 33.08 51.2 35C51.2 35.9 51.05 36.73 50.75 37.49C50.45 38.25 49.76 39.12 48.68 40.1C47.62 41.06 46.16 42.01 44.3 42.95L42.8 43.7V43.85H51.2V50H30.95Z" fill="white"/>
</svg>
