<svg width="80" height="80" viewBox="0 0 80 80" fill="none" xmlns="http://www.w3.org/2000/svg">
<rect width="80" height="80" rx="40" fill="#BFB2FF"/>
<path d="M40.4 50.6C38.48 50.6 36.71 50.42 35.09 50.06C33.47 49.72 32.32 49.38 31.64 49.04L30.65 48.5V42.2C30.75 42.28 30.89 42.38 31.07 42.5C31.25 42.62 31.65 42.84 32.27 43.16C32.89 43.46 33.53 43.73 34.19 43.97C34.85 44.21 35.69 44.43 36.71 44.63C37.73 44.81 38.76 44.9 39.8 44.9C41.2 44.9 42.22 44.69 42.86 44.27C43.52 43.85 43.85 43.31 43.85 42.65C43.85 41.99 43.52 41.45 42.86 41.03C42.22 40.61 41.2 40.4 39.8 40.4C38.86 40.4 37.91 40.48 36.95 40.64C36.01 40.78 35.3 40.92 34.82 41.06L34.1 41.3V38.45L38.9 35.3V35H30.8V29H50.75V33.2L44 37.1V37.4C46.22 37.4 48.05 37.96 49.49 39.08C50.93 40.2 51.65 41.59 51.65 43.25C51.65 45.43 50.72 47.2 48.86 48.56C47 49.92 44.18 50.6 40.4 50.6Z" fill="black"/>
</svg>
