<svg width="231" height="52" viewBox="0 0 231 52" fill="none" xmlns="http://www.w3.org/2000/svg">
<path d="M33.9313 32.2165C34.6614 34.1212 34.4233 35.899 33.217 37.5498C32.0106 39.2006 30.3122 40.026 28.1217 40.026C27.0741 40.026 26.0824 39.7562 25.1465 39.2165C24.2094 38.6768 23.5186 37.9625 23.0741 37.0736C20.4392 37.4546 18.257 36.7797 16.5275 35.0489C14.7967 33.3193 14.09 31.1054 14.4075 28.407C13.4551 27.8673 12.7249 27.1295 12.217 26.1936C11.709 25.2565 11.4551 24.1847 11.4551 22.9784C11.4551 21.0419 12.3363 19.4781 14.0989 18.287C15.8602 17.0971 17.5821 16.8514 19.2646 17.5498L22.217 18.7879C22.8519 17.8038 23.6932 17.0019 24.7408 16.3822C25.7884 15.7638 26.9154 15.4228 28.1217 15.3594V11.4546H30.9789V15.7403C32.1535 16.0895 33.1217 16.6368 33.8836 17.3822C34.6455 18.1289 35.2963 19.1689 35.836 20.5022H40.0265V23.3593H36.1217C36.0582 24.5657 35.7332 25.6927 35.1465 26.7403C34.5586 27.7879 33.7725 28.6292 32.7884 29.2641L33.9313 32.2165ZM22.1217 33.3593C22.1217 32.5022 22.1935 31.6692 22.337 30.8603C22.4792 30.0501 22.6932 29.2641 22.9789 28.5022C22.2487 28.8514 21.4627 29.0971 20.6208 29.2393C19.7802 29.3828 18.9471 29.4228 18.1217 29.3593C18.1217 30.5974 18.4786 31.5739 19.1922 32.2889C19.9071 33.0025 20.8836 33.3593 22.1217 33.3593ZM18.5979 25.5498C19.6138 25.5498 20.5109 25.4228 21.2894 25.1689C22.0665 24.9149 23.0741 24.407 24.3122 23.6451L18.5979 21.2641C17.6773 20.8832 16.8919 20.8908 16.2417 21.287C15.5903 21.6844 15.2646 22.3117 15.2646 23.1689C15.2646 23.9943 15.5344 24.5974 16.0741 24.9784C16.6138 25.3593 17.4551 25.5498 18.5979 25.5498ZM28.1217 36.2165C28.9154 36.2165 29.5579 35.9384 30.0494 35.3822C30.5421 34.8273 30.6614 34.2482 30.4074 33.6451L27.836 27.1689C27.2329 28.1847 26.7649 29.2006 26.4322 30.2165C26.0982 31.2324 25.9313 32.153 25.9313 32.9784C25.9313 34.026 26.1141 34.8273 26.4798 35.3822C26.8443 35.9384 27.3916 36.2165 28.1217 36.2165ZM31.2646 25.6451C31.5821 25.3276 31.836 24.9066 32.0265 24.3822C32.217 23.859 32.3122 23.3117 32.3122 22.7403C32.3122 21.7244 31.9789 20.8673 31.3122 20.1689C30.6455 19.4705 29.8202 19.1213 28.836 19.1213C28.2646 19.1213 27.7249 19.2165 27.217 19.407C26.709 19.5974 26.2805 19.8673 25.9313 20.2165L29.6455 21.9308L31.2646 25.6451Z" fill="#BFB2FF"/>
<path d="M65.1 26.2C66.2733 26.2 67.1667 26.4733 67.78 27.02C68.3933 27.5667 68.7 28.3267 68.7 29.3V32H63.7V29C63.7 28.2667 63.2 27.9 62.2 27.9H58.5V32H53.5V18H63.1C65.1533 18 66.7 18.4 67.74 19.2C68.78 19.9867 69.3 21.02 69.3 22.3C69.3 23.42 68.9267 24.32 68.18 25C67.4467 25.6667 66.42 26 65.1 26V26.2ZM62 25C62.7467 25 63.28 24.8667 63.6 24.6C63.9333 24.3333 64.1 23.9333 64.1 23.4C64.1 22.8667 63.9333 22.4667 63.6 22.2C63.28 21.9333 62.7467 21.8 62 21.8H58.5V25H62ZM78.9078 32.3C76.2678 32.3 74.2545 31.7467 72.8678 30.64C71.4945 29.5333 70.8078 28.0867 70.8078 26.3C70.8078 24.4867 71.4478 23.0333 72.7278 21.94C74.0211 20.8467 75.8811 20.3 78.3078 20.3C80.5878 20.3 82.3745 20.86 83.6678 21.98C84.9611 23.1 85.6078 24.54 85.6078 26.3V26.5H76.0078C76.2078 27.7667 77.5745 28.4 80.1078 28.4C80.8811 28.4 81.6145 28.32 82.3078 28.16C83.0145 27.9867 83.5278 27.8133 83.8478 27.64L84.3078 27.4V31.3C84.1878 31.38 84.0011 31.4733 83.7478 31.58C83.5078 31.6867 82.9211 31.8333 81.9878 32.02C81.0545 32.2067 80.0278 32.3 78.9078 32.3ZM76.0078 25.1H80.5078C80.4411 24.5533 80.2145 24.12 79.8278 23.8C79.4411 23.4667 78.9345 23.3 78.3078 23.3C77.6278 23.3 77.0878 23.4667 76.6878 23.8C76.3011 24.12 76.0745 24.5533 76.0078 25.1ZM87.5141 32V20.6H92.5141V22.1H92.7141C92.7407 22.0467 92.7807 21.98 92.8341 21.9C92.9007 21.82 93.0407 21.68 93.2541 21.48C93.4807 21.2667 93.7207 21.08 93.9741 20.92C94.2407 20.76 94.5941 20.62 95.0341 20.5C95.4741 20.3667 95.9341 20.3 96.4141 20.3C98.1207 20.3 99.3607 20.9 100.134 22.1H100.314C100.354 22.0467 100.407 21.98 100.474 21.9C100.541 21.82 100.701 21.68 100.954 21.48C101.207 21.2667 101.481 21.08 101.774 20.92C102.081 20.76 102.474 20.62 102.954 20.5C103.447 20.3667 103.967 20.3 104.514 20.3C105.954 20.3 107.081 20.6867 107.894 21.46C108.707 22.2333 109.114 23.28 109.114 24.6V32H104.114V25.58C104.114 24.9933 103.974 24.5533 103.694 24.26C103.414 23.9533 103.021 23.8 102.514 23.8C102.154 23.8 101.834 23.8867 101.554 24.06C101.274 24.22 101.081 24.3867 100.974 24.56L100.814 24.8V32H95.8141V25.58C95.8141 24.9933 95.6741 24.5533 95.3941 24.26C95.1141 23.9533 94.7207 23.8 94.2141 23.8C93.8541 23.8 93.5341 23.8867 93.2541 24.06C92.9741 24.22 92.7807 24.3867 92.6741 24.56L92.5141 24.8V32H87.5141ZM125.505 21.7H120.705V28.3H125.505V32H110.905V28.3H115.705V21.7H110.905V18H125.505V21.7ZM141.037 30.64C139.677 31.7467 137.697 32.3 135.097 32.3C132.497 32.3 130.51 31.7467 129.137 30.64C127.777 29.5333 127.097 28.0867 127.097 26.3C127.097 24.5133 127.777 23.0667 129.137 21.96C130.51 20.8533 132.497 20.3 135.097 20.3C137.697 20.3 139.677 20.8533 141.037 21.96C142.41 23.0667 143.097 24.5133 143.097 26.3C143.097 28.0867 142.41 29.5333 141.037 30.64ZM133.037 28.18C133.544 28.66 134.23 28.9 135.097 28.9C135.964 28.9 136.644 28.66 137.137 28.18C137.644 27.7 137.897 27.0733 137.897 26.3C137.897 25.5267 137.644 24.9 137.137 24.42C136.644 23.94 135.964 23.7 135.097 23.7C134.23 23.7 133.544 23.94 133.037 24.42C132.544 24.9 132.297 25.5267 132.297 26.3C132.297 27.0733 132.544 27.7 133.037 28.18ZM160.295 18V22.1H154.695V32H149.695V22.1H144.095V18H160.295ZM168.595 32.3C165.955 32.3 163.942 31.7467 162.555 30.64C161.182 29.5333 160.495 28.0867 160.495 26.3C160.495 24.4867 161.135 23.0333 162.415 21.94C163.709 20.8467 165.569 20.3 167.995 20.3C170.275 20.3 172.062 20.86 173.355 21.98C174.649 23.1 175.295 24.54 175.295 26.3V26.5H165.695C165.895 27.7667 167.262 28.4 169.795 28.4C170.569 28.4 171.302 28.32 171.995 28.16C172.702 27.9867 173.215 27.8133 173.535 27.64L173.995 27.4V31.3C173.875 31.38 173.689 31.4733 173.435 31.58C173.195 31.6867 172.609 31.8333 171.675 32.02C170.742 32.2067 169.715 32.3 168.595 32.3ZM165.695 25.1H170.195C170.129 24.5533 169.902 24.12 169.515 23.8C169.129 23.4667 168.622 23.3 167.995 23.3C167.315 23.3 166.775 23.4667 166.375 23.8C165.989 24.12 165.762 24.5533 165.695 25.1ZM183.402 32V18H188.402V27.9H197.402V32H183.402ZM202.305 32.3C200.959 32.3 199.939 32.0267 199.245 31.48C198.552 30.92 198.205 30.1933 198.205 29.3C198.205 28.26 198.665 27.46 199.585 26.9C200.505 26.34 202.045 26.0067 204.205 25.9C205.152 25.86 205.865 25.8 206.345 25.72C206.839 25.6267 207.152 25.5333 207.285 25.44C207.432 25.3333 207.505 25.1867 207.505 25C207.505 24.4667 206.639 24.2 204.905 24.2C203.865 24.2 202.859 24.3 201.885 24.5C200.925 24.7 200.219 24.9 199.765 25.1L199.105 25.4V21.5C199.279 21.4067 199.525 21.2933 199.845 21.16C200.179 21.0267 200.892 20.8533 201.985 20.64C203.079 20.4133 204.219 20.3 205.405 20.3C207.832 20.3 209.619 20.7267 210.765 21.58C211.925 22.42 212.505 23.56 212.505 25V32H207.505V30.5H207.305C207.252 30.5533 207.179 30.62 207.085 30.7C206.992 30.78 206.785 30.9267 206.465 31.14C206.145 31.34 205.805 31.52 205.445 31.68C205.085 31.84 204.619 31.98 204.045 32.1C203.485 32.2333 202.905 32.3 202.305 32.3ZM204.785 29.1C205.279 29.1 205.752 29.0333 206.205 28.9C206.659 28.7667 206.992 28.6333 207.205 28.5L207.505 28.3V26.7C207.105 26.9667 206.439 27.1333 205.505 27.2C204.105 27.3067 203.405 27.6533 203.405 28.24C203.405 28.8133 203.865 29.1 204.785 29.1ZM224.304 32.3C223.744 32.3 223.204 32.2333 222.684 32.1C222.177 31.98 221.751 31.8333 221.404 31.66C221.071 31.4867 220.777 31.3133 220.524 31.14C220.271 30.9667 220.091 30.8133 219.984 30.68L219.804 30.5H219.604V32H214.604V17.6H219.604V22.1H219.804C219.844 22.0467 219.904 21.98 219.984 21.9C220.064 21.82 220.244 21.68 220.524 21.48C220.804 21.2667 221.104 21.08 221.424 20.92C221.744 20.76 222.164 20.62 222.684 20.5C223.204 20.3667 223.744 20.3 224.304 20.3C225.931 20.3 227.237 20.8333 228.224 21.9C229.211 22.9667 229.704 24.4333 229.704 26.3C229.704 28.1667 229.211 29.6333 228.224 30.7C227.237 31.7667 225.931 32.3 224.304 32.3ZM222.024 28.7C222.811 28.7 223.417 28.4933 223.844 28.08C224.284 27.6533 224.504 27.06 224.504 26.3C224.504 25.54 224.284 24.9533 223.844 24.54C223.417 24.1133 222.811 23.9 222.024 23.9C221.571 23.9 221.144 23.98 220.744 24.14C220.344 24.2867 220.051 24.4333 219.864 24.58L219.604 24.8V27.8C219.671 27.8667 219.764 27.9533 219.884 28.06C220.017 28.1533 220.291 28.2867 220.704 28.46C221.131 28.62 221.571 28.7 222.024 28.7Z" fill="#BFB2FF"/>
</svg>
