<svg width="29" height="30" viewBox="0 0 29 30" fill="none" xmlns="http://www.w3.org/2000/svg">
<path d="M22.6808 21.2165C23.4109 23.1212 23.1728 24.899 21.9665 26.5498C20.7601 28.2006 19.0617 29.026 16.8713 29.026C15.8236 29.026 14.8319 28.7562 13.896 28.2165C12.9589 27.6768 12.2681 26.9625 11.8236 26.0736C9.18871 26.4546 7.00649 25.7797 5.27697 24.0489C3.54618 22.3193 2.83951 20.1054 3.15697 17.407C2.20459 16.8673 1.47443 16.1295 0.966494 15.1936C0.458558 14.2565 0.20459 13.1847 0.20459 11.9784C0.20459 10.0419 1.08586 8.47808 2.8484 7.28697C4.60967 6.09713 6.33157 5.85141 8.01411 6.54982L10.9665 7.78792C11.6014 6.80379 12.4427 6.00189 13.4903 5.38221C14.5379 4.76379 15.6649 4.42284 16.8713 4.35935V0.45459H19.7284V4.7403C20.903 5.08951 21.8712 5.63681 22.6332 6.38221C23.3951 7.12887 24.0458 8.16887 24.5855 9.5022H28.776V12.3593H24.8712C24.8078 13.5657 24.4827 14.6927 23.896 15.7403C23.3081 16.7879 22.522 17.6292 21.5379 18.2641L22.6808 21.2165ZM10.8713 22.3593C10.8713 21.5022 10.943 20.6692 11.0865 19.8603C11.2287 19.0501 11.4427 18.2641 11.7284 17.5022C10.9982 17.8514 10.2122 18.0971 9.3703 18.2393C8.52966 18.3828 7.69665 18.4228 6.87125 18.3593C6.87125 19.5974 7.22808 20.5739 7.94173 21.2889C8.65665 22.0025 9.63316 22.3593 10.8713 22.3593ZM7.34744 14.5498C8.36332 14.5498 9.26046 14.4228 10.0389 14.1689C10.816 13.9149 11.8236 13.407 13.0617 12.6451L7.34744 10.2641C6.42681 9.88316 5.64141 9.89078 4.99125 10.287C4.33983 10.6844 4.01411 11.3117 4.01411 12.1689C4.01411 12.9943 4.28395 13.5974 4.82364 13.9784C5.36332 14.3593 6.20459 14.5498 7.34744 14.5498ZM16.8713 25.2165C17.6649 25.2165 18.3074 24.9384 18.7989 24.3822C19.2916 23.8273 19.4109 23.2482 19.157 22.6451L16.5855 16.1689C15.9824 17.1847 15.5144 18.2006 15.1817 19.2165C14.8478 20.2324 14.6808 21.153 14.6808 21.9784C14.6808 23.026 14.8636 23.8273 15.2293 24.3822C15.5938 24.9384 16.1411 25.2165 16.8713 25.2165ZM20.0141 14.6451C20.3316 14.3276 20.5855 13.9066 20.776 13.3822C20.9665 12.859 21.0617 12.3117 21.0617 11.7403C21.0617 10.7244 20.7284 9.86728 20.0617 9.16887C19.3951 8.47046 18.5697 8.12125 17.5855 8.12125C17.0141 8.12125 16.4744 8.21649 15.9665 8.40697C15.4586 8.59744 15.03 8.86729 14.6808 9.21649L18.3951 10.9308L20.0141 14.6451Z" fill="#BFB2FF"/>
</svg>
