<svg width="21" height="21" viewBox="0 0 21 21" fill="none" xmlns="http://www.w3.org/2000/svg">
<path d="M10.75 11.3334C11.2102 11.3334 11.5833 10.9603 11.5833 10.5001C11.5833 10.0398 11.2102 9.66675 10.75 9.66675C10.2897 9.66675 9.91663 10.0398 9.91663 10.5001C9.91663 10.9603 10.2897 11.3334 10.75 11.3334Z" fill="#808080" stroke="#808080" stroke-width="2" stroke-linecap="round" stroke-linejoin="round"/>
<path d="M10.75 5.49992C11.2102 5.49992 11.5833 5.12682 11.5833 4.66659C11.5833 4.20635 11.2102 3.83325 10.75 3.83325C10.2897 3.83325 9.91663 4.20635 9.91663 4.66659C9.91663 5.12682 10.2897 5.49992 10.75 5.49992Z" fill="#808080" stroke="#808080" stroke-width="2" stroke-linecap="round" stroke-linejoin="round"/>
<path d="M10.75 17.1667C11.2102 17.1667 11.5833 16.7936 11.5833 16.3333C11.5833 15.8731 11.2102 15.5 10.75 15.5C10.2897 15.5 9.91663 15.8731 9.91663 16.3333C9.91663 16.7936 10.2897 17.1667 10.75 17.1667Z" fill="#808080" stroke="#808080" stroke-width="2" stroke-linecap="round" stroke-linejoin="round"/>
</svg>
