<svg width="22" height="21" viewBox="0 0 22 21" fill="none" xmlns="http://www.w3.org/2000/svg">
<path d="M16.125 7.33325C16.125 5.97402 15.585 4.67045 14.6239 3.70933C13.6628 2.74821 12.3592 2.20825 11 2.20825C9.64077 2.20825 8.3372 2.74821 7.37608 3.70933C6.41495 4.67045 5.875 5.97402 5.875 7.33325C5.875 13.3124 3.3125 15.0208 3.3125 15.0208H18.6875C18.6875 15.0208 16.125 13.3124 16.125 7.33325Z" stroke="white" stroke-width="2" stroke-linecap="round" stroke-linejoin="round"/>
<path d="M12.4778 18.4375C12.3276 18.6964 12.112 18.9113 11.8527 19.0606C11.5934 19.21 11.2993 19.2886 11 19.2886C10.7008 19.2886 10.4067 19.21 10.1474 19.0606C9.88806 18.9113 9.67251 18.6964 9.52234 18.4375" stroke="white" stroke-width="2" stroke-linecap="round" stroke-linejoin="round"/>
</svg>
