<svg width="22" height="21" viewBox="0 0 22 21" fill="none" xmlns="http://www.w3.org/2000/svg">
<path d="M17.3208 13.3126C17.2071 13.5702 17.1732 13.856 17.2234 14.1331C17.2737 14.4102 17.4057 14.6659 17.6027 14.8672L17.6539 14.9184C17.8128 15.0771 17.9388 15.2655 18.0247 15.4729C18.1107 15.6803 18.1549 15.9026 18.1549 16.1271C18.1549 16.3516 18.1107 16.5739 18.0247 16.7812C17.9388 16.9886 17.8128 17.177 17.6539 17.3357C17.4953 17.4945 17.3068 17.6205 17.0995 17.7065C16.8921 17.7925 16.6698 17.8367 16.4453 17.8367C16.2208 17.8367 15.9985 17.7925 15.7911 17.7065C15.5837 17.6205 15.3953 17.4945 15.2366 17.3357L15.1854 17.2845C14.9841 17.0875 14.7284 16.9554 14.4513 16.9052C14.1742 16.855 13.8884 16.8889 13.6308 17.0026C13.3782 17.1109 13.1627 17.2906 13.0109 17.5198C12.8592 17.749 12.7777 18.0175 12.7766 18.2924V18.4376C12.7766 18.8907 12.5966 19.3252 12.2763 19.6456C11.9559 19.9659 11.5214 20.1459 11.0683 20.1459C10.6152 20.1459 10.1807 19.9659 9.86032 19.6456C9.53994 19.3252 9.35996 18.8907 9.35996 18.4376V18.3607C9.35335 18.078 9.26183 17.8038 9.09731 17.5738C8.93279 17.3437 8.70288 17.1685 8.43746 17.0709C8.17983 16.9572 7.89404 16.9233 7.61696 16.9735C7.33987 17.0238 7.08418 17.1559 6.88288 17.3528L6.83163 17.404C6.67297 17.5629 6.48456 17.6889 6.27717 17.7748C6.06978 17.8608 5.84748 17.9051 5.62298 17.9051C5.39848 17.9051 5.17618 17.8608 4.96879 17.7748C4.7614 17.6889 4.57299 17.5629 4.41433 17.404C4.2555 17.2454 4.12949 17.057 4.04352 16.8496C3.95755 16.6422 3.9133 16.4199 3.9133 16.1954C3.9133 15.9709 3.95755 15.7486 4.04352 15.5412C4.12949 15.3338 4.2555 15.1454 4.41433 14.9867L4.46558 14.9355C4.6625 14.7342 4.7946 14.4785 4.84484 14.2014C4.89508 13.9243 4.86116 13.6385 4.74746 13.3809C4.63918 13.1283 4.4594 12.9128 4.23023 12.7611C4.00107 12.6093 3.73253 12.5278 3.45767 12.5267H3.31246C2.85938 12.5267 2.42486 12.3468 2.10449 12.0264C1.78411 11.706 1.60413 11.2715 1.60413 10.8184C1.60413 10.3653 1.78411 9.93082 2.10449 9.61044C2.42486 9.29007 2.85938 9.11008 3.31246 9.11008H3.38933C3.67206 9.10347 3.94625 9.01195 4.17628 8.84743C4.4063 8.68291 4.58151 8.453 4.67913 8.18758C4.79283 7.92995 4.82675 7.64417 4.7765 7.36708C4.72626 7.08999 4.59417 6.83431 4.39725 6.633L4.346 6.58175C4.18717 6.42309 4.06116 6.23468 3.97519 6.02729C3.88922 5.8199 3.84497 5.5976 3.84497 5.3731C3.84497 5.1486 3.88922 4.9263 3.97519 4.71891C4.06116 4.51152 4.18717 4.32311 4.346 4.16446C4.50466 4.00562 4.69307 3.87962 4.90046 3.79365C5.10785 3.70768 5.33015 3.66342 5.55465 3.66342C5.77915 3.66342 6.00145 3.70768 6.20884 3.79365C6.41622 3.87962 6.60463 4.00562 6.76329 4.16446L6.81454 4.21571C7.01585 4.41262 7.27154 4.54472 7.54862 4.59496C7.82571 4.6452 8.1115 4.61128 8.36913 4.49758H8.43746C8.6901 4.3893 8.90556 4.20952 9.05732 3.98035C9.20909 3.75119 9.29053 3.48265 9.29163 3.20779V3.06258C9.29163 2.6095 9.47161 2.17498 9.79199 1.85461C10.1124 1.53423 10.5469 1.35425 11 1.35425C11.453 1.35425 11.8876 1.53423 12.2079 1.85461C12.5283 2.17498 12.7083 2.6095 12.7083 3.06258V3.13946C12.7094 3.41432 12.7908 3.68286 12.9426 3.91202C13.0944 4.14119 13.3098 4.32097 13.5625 4.42925C13.8201 4.54295 14.1059 4.57687 14.383 4.52663C14.66 4.47639 14.9157 4.34429 15.117 4.14737L15.1683 4.09612C15.3269 3.93729 15.5154 3.81128 15.7227 3.72531C15.9301 3.63934 16.1524 3.59509 16.3769 3.59509C16.6014 3.59509 16.8237 3.63934 17.0311 3.72531C17.2385 3.81128 17.4269 3.93729 17.5856 4.09612C17.7444 4.25478 17.8704 4.44319 17.9564 4.65058C18.0424 4.85797 18.0866 5.08027 18.0866 5.30477C18.0866 5.52927 18.0424 5.75157 17.9564 5.95896C17.8704 6.16635 17.7444 6.35476 17.5856 6.51341L17.5343 6.56466C17.3374 6.76597 17.2053 7.02166 17.1551 7.29874C17.1048 7.57583 17.1388 7.86162 17.2525 8.11925V8.18758C17.3607 8.44022 17.5405 8.65568 17.7697 8.80744C17.9989 8.95921 18.2674 9.04065 18.5423 9.04175H18.6875C19.1405 9.04175 19.5751 9.22173 19.8954 9.54211C20.2158 9.86248 20.3958 10.297 20.3958 10.7501C20.3958 11.2032 20.2158 11.6377 19.8954 11.9581C19.5751 12.2784 19.1405 12.4584 18.6875 12.4584H18.6106C18.3357 12.4595 18.0672 12.541 17.838 12.6927C17.6089 12.8445 17.4291 13.0599 17.3208 13.3126V13.3126Z" stroke="white" stroke-width="2" stroke-linecap="round" stroke-linejoin="round"/>
</svg>
