<svg width="20" height="20" viewBox="0 0 20 20" fill="none" xmlns="http://www.w3.org/2000/svg">
<mask id="mask0_869_2911" style="mask-type:alpha" maskUnits="userSpaceOnUse" x="0" y="0" width="64" height="64">
<rect width="64" height="64" fill="#D9D9D9"/>
</mask>
<g mask="url(#mask0_869_2911)">
<path d="M7.70809 18.3337L7.37476 15.667C7.1942 15.5975 7.0242 15.5142 6.86476 15.417C6.70476 15.3198 6.54837 15.2156 6.39559 15.1045L3.91642 16.1462L1.62476 12.1878L3.77059 10.5628C3.7567 10.4656 3.74976 10.3717 3.74976 10.2812V9.71866C3.74976 9.62866 3.7567 9.53505 3.77059 9.43783L1.62476 7.81283L3.91642 3.85449L6.39559 4.89616C6.54837 4.78505 6.70809 4.68088 6.87476 4.58366C7.04142 4.48644 7.20809 4.4031 7.37476 4.33366L7.70809 1.66699H12.2914L12.6248 4.33366C12.8053 4.4031 12.9756 4.48644 13.1356 4.58366C13.295 4.68088 13.4511 4.78505 13.6039 4.89616L16.0831 3.85449L18.3748 7.81283L16.2289 9.43783C16.2428 9.53505 16.2498 9.62866 16.2498 9.71866V10.2812C16.2498 10.3717 16.2359 10.4656 16.2081 10.5628L18.3539 12.1878L16.0623 16.1462L13.6039 15.1045C13.4511 15.2156 13.2914 15.3198 13.1248 15.417C12.9581 15.5142 12.7914 15.5975 12.6248 15.667L12.2914 18.3337H7.70809ZM10.0414 12.917C10.847 12.917 11.5345 12.6323 12.1039 12.0628C12.6734 11.4934 12.9581 10.8059 12.9581 10.0003C12.9581 9.19477 12.6734 8.50727 12.1039 7.93783C11.5345 7.36838 10.847 7.08366 10.0414 7.08366C9.22198 7.08366 8.53087 7.36838 7.96809 7.93783C7.40587 8.50727 7.12476 9.19477 7.12476 10.0003C7.12476 10.8059 7.40587 11.4934 7.96809 12.0628C8.53087 12.6323 9.22198 12.917 10.0414 12.917ZM10.0414 11.2503C9.6942 11.2503 9.3992 11.1287 9.15642 10.8853C8.91309 10.6425 8.79142 10.3475 8.79142 10.0003C8.79142 9.6531 8.91309 9.3581 9.15642 9.11533C9.3992 8.87199 9.6942 8.75033 10.0414 8.75033C10.3886 8.75033 10.6839 8.87199 10.9273 9.11533C11.17 9.3581 11.2914 9.6531 11.2914 10.0003C11.2914 10.3475 11.17 10.6425 10.9273 10.8853C10.6839 11.1287 10.3886 11.2503 10.0414 11.2503ZM9.16642 16.667H10.8123L11.1039 14.4587C11.5345 14.3475 11.9339 14.1842 12.3023 13.9687C12.67 13.7537 13.0067 13.4934 13.3123 13.1878L15.3748 14.042L16.1873 12.6253L14.3956 11.2712C14.465 11.0767 14.5136 10.8717 14.5414 10.6562C14.5692 10.4412 14.5831 10.2225 14.5831 10.0003C14.5831 9.7781 14.5692 9.55921 14.5414 9.34366C14.5136 9.12866 14.465 8.92394 14.3956 8.72949L16.1873 7.37533L15.3748 5.95866L13.3123 6.83366C13.0067 6.51421 12.67 6.24671 12.3023 6.03116C11.9339 5.81616 11.5345 5.6531 11.1039 5.54199L10.8331 3.33366H9.18726L8.89559 5.54199C8.46503 5.6531 8.06587 5.81616 7.69809 6.03116C7.32976 6.24671 6.99281 6.50727 6.68726 6.81283L4.62476 5.95866L3.81226 7.37533L5.60392 8.70866C5.53448 8.91699 5.48587 9.12533 5.45809 9.33366C5.43031 9.54199 5.41642 9.76421 5.41642 10.0003C5.41642 10.2225 5.43031 10.4378 5.45809 10.6462C5.48587 10.8545 5.53448 11.0628 5.60392 11.2712L3.81226 12.6253L4.62476 14.042L6.68726 13.167C6.99281 13.4864 7.32976 13.7537 7.69809 13.9687C8.06587 14.1842 8.46503 14.3475 8.89559 14.4587L9.16642 16.667Z" fill="#BFB2FF"/>
</g>
</svg>
