<svg width="22" height="21" viewBox="0 0 22 21" fill="none" xmlns="http://www.w3.org/2000/svg">
<path d="M8.51442 7.68742C8.71523 7.11655 9.11161 6.63518 9.63334 6.32855C10.1551 6.02193 10.7685 5.90984 11.3649 6.01215C11.9614 6.11446 12.5024 6.42455 12.8921 6.88752C13.2818 7.35048 13.4951 7.93643 13.4942 8.54159C13.4942 10.2499 10.9317 11.1041 10.9317 11.1041M11 14.5208H11.0086M19.5417 10.2499C19.5417 14.9674 15.7175 18.7916 11 18.7916C6.28261 18.7916 2.45837 14.9674 2.45837 10.2499C2.45837 5.53249 6.28261 1.70825 11 1.70825C15.7175 1.70825 19.5417 5.53249 19.5417 10.2499Z" stroke="white" stroke-width="2" stroke-linecap="round" stroke-linejoin="round"/>
</svg>
